<mxfile host="app.diagrams.net" modified="2023-04-05T08:24:10.341Z" agent="Mozilla/5.0 (Windows NT 10.0; Win64; x64) AppleWebKit/537.36 (KHTML, like Gecko) Chrome/96.0.4664.45 Safari/537.36" version="21.1.4" etag="_w-o7r56Saw7MDizMoLQ" type="github">
  <diagram name="第 1 页" id="WiLY5_OS4S4dnDlmvVfY">
    <mxGraphModel>
      <root>
        <mxCell id="0" />
        <mxCell id="1" parent="0" />
      </root>
    </mxGraphModel>
  </diagram>
</mxfile>
